<svg width="64" height="64" viewBox="0 0 64 64" fill="none" xmlns="http://www.w3.org/2000/svg">
  <!-- Batik Kawung Pattern Background -->
  <defs>
    <pattern id="batikPatternIcon" x="0" y="0" width="16" height="16" patternUnits="userSpaceOnUse">
      <circle cx="4" cy="4" r="1.5" fill="#78350F" opacity="0.1"/>
      <circle cx="12" cy="4" r="1.5" fill="#78350F" opacity="0.1"/>
      <circle cx="4" cy="12" r="1.5" fill="#78350F" opacity="0.1"/>
      <circle cx="12" cy="12" r="1.5" fill="#78350F" opacity="0.1"/>
      <circle cx="8" cy="8" r="2" fill="#F59E0B" opacity="0.15"/>
    </pattern>

    <!-- Gradient for transparency effect -->
    <linearGradient id="transparencyGradIcon" x1="0%" y1="0%" x2="100%" y2="100%">
      <stop offset="0%" style="stop-color:#4F46E5;stop-opacity:1" />
      <stop offset="50%" style="stop-color:#6366F1;stop-opacity:0.85" />
      <stop offset="100%" style="stop-color:#818CF8;stop-opacity:0.7" />
    </linearGradient>

    <!-- Gold accent gradient -->
    <linearGradient id="goldGradIcon" x1="0%" y1="0%" x2="100%" y2="100%">
      <stop offset="0%" style="stop-color:#F59E0B;stop-opacity:1" />
      <stop offset="100%" style="stop-color:#FBBF24;stop-opacity:1" />
    </linearGradient>

    <!-- Background gradient -->
    <radialGradient id="bgGrad">
      <stop offset="0%" style="stop-color:#EEF2FF;stop-opacity:1" />
      <stop offset="100%" style="stop-color:#E0E7FF;stop-opacity:1" />
    </radialGradient>
  </defs>

  <!-- Background with batik pattern -->
  <rect width="64" height="64" fill="url(#bgGrad)" rx="12"/>
  <rect width="64" height="64" fill="url(#batikPatternIcon)" rx="12"/>

  <!-- Main icon: Transparent ledger with blockchain symbol -->
  <g transform="translate(32, 32)">
    <!-- Book/ledger pages (layered for transparency effect) -->
    <rect x="-16" y="-14" width="18" height="24" rx="2" fill="url(#transparencyGradIcon)" opacity="0.35"/>
    <rect x="-14" y="-16" width="18" height="24" rx="2" fill="url(#transparencyGradIcon)" opacity="0.55"/>
    <rect x="-12" y="-18" width="18" height="24" rx="2" fill="url(#transparencyGradIcon)" opacity="0.75"/>

    <!-- Front page with border -->
    <rect x="-10" y="-20" width="18" height="24" rx="2" fill="url(#transparencyGradIcon)" stroke="#4338CA" stroke-width="1.5"/>

    <!-- Ledger lines (budget items) -->
    <line x1="-7" y1="-15" x2="5" y2="-15" stroke="white" stroke-width="1.5" opacity="0.95" stroke-linecap="round"/>
    <line x1="-7" y1="-10" x2="5" y2="-10" stroke="white" stroke-width="1.5" opacity="0.75" stroke-linecap="round"/>
    <line x1="-7" y1="-5" x2="5" y2="-5" stroke="white" stroke-width="1.5" opacity="0.75" stroke-linecap="round"/>
    <line x1="-7" y1="0" x2="5" y2="0" stroke="white" stroke-width="1.5" opacity="0.55" stroke-linecap="round"/>

    <!-- Checkmark symbol (verified/transparent) -->
    <path d="M -5 3 L -2 7 L 4 -1" stroke="url(#goldGradIcon)" stroke-width="2.5" fill="none" stroke-linecap="round" stroke-linejoin="round"/>

    <!-- Batik Kawung accent dots -->
    <circle cx="7" cy="-18" r="2" fill="#F59E0B" opacity="0.9"/>
    <circle cx="7" cy="3" r="2" fill="#F59E0B" opacity="0.9"/>
    <circle cx="-9" cy="-18" r="1.5" fill="#FBBF24" opacity="0.7"/>
    <circle cx="-9" cy="3" r="1.5" fill="#FBBF24" opacity="0.7"/>
  </g>

  <!-- Subtle corner batik elements -->
  <circle cx="10" cy="10" r="3" fill="#78350F" opacity="0.08"/>
  <circle cx="54" cy="10" r="3" fill="#78350F" opacity="0.08"/>
  <circle cx="10" cy="54" r="3" fill="#78350F" opacity="0.08"/>
  <circle cx="54" cy="54" r="3" fill="#78350F" opacity="0.08"/>
</svg>
